<mxfile host="app.diagrams.net" modified="2024-05-07T14:56:54.044Z" agent="Mozilla/5.0 (Windows NT 10.0; Win64; x64; rv:125.0) Gecko/20100101 Firefox/125.0" etag="bz42Yc73QGkxhCP3eIP9" version="24.3.1" type="device">
  <diagram name="Page-1" id="-GsCyK2nhQUvXVOOCfc5">
    <mxGraphModel dx="1839" dy="534" grid="1" gridSize="10" guides="1" tooltips="1" connect="1" arrows="1" fold="1" page="1" pageScale="1" pageWidth="850" pageHeight="1100" math="0" shadow="0">
      <root>
        <mxCell id="0" />
        <mxCell id="1" parent="0" />
        <mxCell id="_6CS_IGcEAPFNUFGhsZa-38" style="edgeStyle=orthogonalEdgeStyle;rounded=0;orthogonalLoop=1;jettySize=auto;html=1;entryX=0;entryY=0.5;entryDx=0;entryDy=0;exitX=0.5;exitY=1;exitDx=0;exitDy=0;" parent="1" source="_6CS_IGcEAPFNUFGhsZa-6" target="_6CS_IGcEAPFNUFGhsZa-40" edge="1">
          <mxGeometry relative="1" as="geometry">
            <mxPoint x="350.08500000000004" y="439.55999999999995" as="targetPoint" />
          </mxGeometry>
        </mxCell>
        <mxCell id="_6CS_IGcEAPFNUFGhsZa-6" value="Registrarse" style="rounded=1;whiteSpace=wrap;html=1;" parent="1" vertex="1">
          <mxGeometry x="165" y="385" width="75" height="35" as="geometry" />
        </mxCell>
        <mxCell id="_6CS_IGcEAPFNUFGhsZa-95" style="edgeStyle=orthogonalEdgeStyle;rounded=0;orthogonalLoop=1;jettySize=auto;html=1;entryX=0.5;entryY=1;entryDx=0;entryDy=0;" parent="1" source="_6CS_IGcEAPFNUFGhsZa-15" target="_6CS_IGcEAPFNUFGhsZa-94" edge="1">
          <mxGeometry relative="1" as="geometry" />
        </mxCell>
        <mxCell id="_6CS_IGcEAPFNUFGhsZa-15" value="Crear pedido" style="rounded=1;whiteSpace=wrap;html=1;" parent="1" vertex="1">
          <mxGeometry x="360" y="240" width="90" height="40" as="geometry" />
        </mxCell>
        <mxCell id="_6CS_IGcEAPFNUFGhsZa-26" value="Servir Helado a Cliente" style="rounded=1;whiteSpace=wrap;html=1;" parent="1" vertex="1">
          <mxGeometry x="710" y="275" width="90" height="40" as="geometry" />
        </mxCell>
        <mxCell id="_6CS_IGcEAPFNUFGhsZa-40" value="Acceder a datos perfil (historial / reseÃ±as, etc)" style="rounded=1;whiteSpace=wrap;html=1;" parent="1" vertex="1">
          <mxGeometry x="380" y="515" width="155" height="70" as="geometry" />
        </mxCell>
        <mxCell id="_6CS_IGcEAPFNUFGhsZa-46" style="edgeStyle=orthogonalEdgeStyle;rounded=0;orthogonalLoop=1;jettySize=auto;html=1;entryX=0.438;entryY=0.995;entryDx=0;entryDy=0;entryPerimeter=0;" parent="1" source="_6CS_IGcEAPFNUFGhsZa-6" target="_6CS_IGcEAPFNUFGhsZa-15" edge="1">
          <mxGeometry relative="1" as="geometry" />
        </mxCell>
        <mxCell id="_6CS_IGcEAPFNUFGhsZa-52" style="edgeStyle=orthogonalEdgeStyle;rounded=0;orthogonalLoop=1;jettySize=auto;html=1;entryX=1;entryY=0.5;entryDx=0;entryDy=0;exitX=0.503;exitY=1.048;exitDx=0;exitDy=0;exitPerimeter=0;" parent="1" source="_6CS_IGcEAPFNUFGhsZa-47" target="_6CS_IGcEAPFNUFGhsZa-40" edge="1">
          <mxGeometry relative="1" as="geometry">
            <mxPoint x="760" y="480" as="sourcePoint" />
            <Array as="points">
              <mxPoint x="760" y="480" />
              <mxPoint x="760" y="540" />
            </Array>
          </mxGeometry>
        </mxCell>
        <mxCell id="_6CS_IGcEAPFNUFGhsZa-53" value="&lt;div&gt;Si&lt;/div&gt;" style="edgeLabel;html=1;align=center;verticalAlign=middle;resizable=0;points=[];" parent="_6CS_IGcEAPFNUFGhsZa-52" vertex="1" connectable="0">
          <mxGeometry x="-0.9347" relative="1" as="geometry">
            <mxPoint x="-2" y="2" as="offset" />
          </mxGeometry>
        </mxCell>
        <mxCell id="_6CS_IGcEAPFNUFGhsZa-47" value="Usuario Registrado" style="rhombus;whiteSpace=wrap;html=1;" parent="1" vertex="1">
          <mxGeometry x="710" y="390" width="100" height="70" as="geometry" />
        </mxCell>
        <mxCell id="_6CS_IGcEAPFNUFGhsZa-48" style="edgeStyle=orthogonalEdgeStyle;rounded=0;orthogonalLoop=1;jettySize=auto;html=1;entryX=0.495;entryY=-0.042;entryDx=0;entryDy=0;entryPerimeter=0;exitX=0.549;exitY=1.097;exitDx=0;exitDy=0;exitPerimeter=0;" parent="1" source="_6CS_IGcEAPFNUFGhsZa-26" target="_6CS_IGcEAPFNUFGhsZa-47" edge="1">
          <mxGeometry relative="1" as="geometry" />
        </mxCell>
        <mxCell id="_6CS_IGcEAPFNUFGhsZa-55" value="" style="endArrow=none;dashed=1;html=1;rounded=0;" parent="1" edge="1">
          <mxGeometry width="50" height="50" relative="1" as="geometry">
            <mxPoint x="80" y="370" as="sourcePoint" />
            <mxPoint x="850" y="370" as="targetPoint" />
          </mxGeometry>
        </mxCell>
        <mxCell id="_6CS_IGcEAPFNUFGhsZa-56" value="" style="endArrow=none;dashed=1;html=1;rounded=0;" parent="1" edge="1">
          <mxGeometry width="50" height="50" relative="1" as="geometry">
            <mxPoint x="80" y="220" as="sourcePoint" />
            <mxPoint x="850" y="220" as="targetPoint" />
          </mxGeometry>
        </mxCell>
        <mxCell id="_6CS_IGcEAPFNUFGhsZa-57" value="" style="endArrow=none;html=1;rounded=0;" parent="1" edge="1">
          <mxGeometry width="50" height="50" relative="1" as="geometry">
            <mxPoint x="80" y="610" as="sourcePoint" />
            <mxPoint x="80" y="10" as="targetPoint" />
          </mxGeometry>
        </mxCell>
        <mxCell id="_6CS_IGcEAPFNUFGhsZa-58" value="Usuario Registrado" style="text;html=1;align=center;verticalAlign=middle;whiteSpace=wrap;rounded=0;" parent="1" vertex="1">
          <mxGeometry x="1" y="438" width="80" height="45" as="geometry" />
        </mxCell>
        <mxCell id="_6CS_IGcEAPFNUFGhsZa-59" value="Crear pedido" style="text;html=1;align=center;verticalAlign=middle;whiteSpace=wrap;rounded=0;" parent="1" vertex="1">
          <mxGeometry y="275" width="80" height="45" as="geometry" />
        </mxCell>
        <mxCell id="_6CS_IGcEAPFNUFGhsZa-60" value="" style="endArrow=none;html=1;rounded=0;" parent="1" edge="1">
          <mxGeometry width="50" height="50" relative="1" as="geometry">
            <mxPoint x="80" y="370" as="sourcePoint" />
            <mxPoint x="-50" y="370" as="targetPoint" />
          </mxGeometry>
        </mxCell>
        <mxCell id="_6CS_IGcEAPFNUFGhsZa-61" value="" style="endArrow=none;html=1;rounded=0;" parent="1" edge="1">
          <mxGeometry width="50" height="50" relative="1" as="geometry">
            <mxPoint x="80" y="220" as="sourcePoint" />
            <mxPoint x="-50" y="220" as="targetPoint" />
          </mxGeometry>
        </mxCell>
        <mxCell id="_6CS_IGcEAPFNUFGhsZa-62" value="" style="endArrow=none;html=1;rounded=0;" parent="1" edge="1">
          <mxGeometry width="50" height="50" relative="1" as="geometry">
            <mxPoint x="80" y="610" as="sourcePoint" />
            <mxPoint x="-20" y="610" as="targetPoint" />
          </mxGeometry>
        </mxCell>
        <mxCell id="_6CS_IGcEAPFNUFGhsZa-64" style="edgeStyle=orthogonalEdgeStyle;rounded=0;orthogonalLoop=1;jettySize=auto;html=1;entryX=0.5;entryY=0;entryDx=0;entryDy=0;" parent="1" source="_6CS_IGcEAPFNUFGhsZa-63" target="_6CS_IGcEAPFNUFGhsZa-6" edge="1">
          <mxGeometry relative="1" as="geometry" />
        </mxCell>
        <mxCell id="_6CS_IGcEAPFNUFGhsZa-65" style="edgeStyle=orthogonalEdgeStyle;rounded=0;orthogonalLoop=1;jettySize=auto;html=1;entryX=0;entryY=0.5;entryDx=0;entryDy=0;" parent="1" source="_6CS_IGcEAPFNUFGhsZa-63" target="_6CS_IGcEAPFNUFGhsZa-15" edge="1">
          <mxGeometry relative="1" as="geometry" />
        </mxCell>
        <mxCell id="_6CS_IGcEAPFNUFGhsZa-63" value="&lt;div&gt;Usuario&lt;/div&gt;" style="shape=umlActor;verticalLabelPosition=bottom;verticalAlign=top;html=1;outlineConnect=0;" parent="1" vertex="1">
          <mxGeometry x="110" y="268" width="30" height="60" as="geometry" />
        </mxCell>
        <mxCell id="_6CS_IGcEAPFNUFGhsZa-66" value="Pagos" style="text;html=1;align=center;verticalAlign=middle;whiteSpace=wrap;rounded=0;" parent="1" vertex="1">
          <mxGeometry y="75" width="80" height="45" as="geometry" />
        </mxCell>
        <mxCell id="_6CS_IGcEAPFNUFGhsZa-91" style="edgeStyle=orthogonalEdgeStyle;rounded=0;orthogonalLoop=1;jettySize=auto;html=1;entryX=0.5;entryY=0;entryDx=0;entryDy=0;" parent="1" source="_6CS_IGcEAPFNUFGhsZa-81" target="_6CS_IGcEAPFNUFGhsZa-26" edge="1">
          <mxGeometry relative="1" as="geometry">
            <mxPoint x="690" y="144.99999999999977" as="targetPoint" />
          </mxGeometry>
        </mxCell>
        <mxCell id="_6CS_IGcEAPFNUFGhsZa-81" value="Gestionar pago" style="rounded=1;whiteSpace=wrap;html=1;" parent="1" vertex="1">
          <mxGeometry x="500" y="20" width="90" height="40" as="geometry" />
        </mxCell>
        <mxCell id="_6CS_IGcEAPFNUFGhsZa-96" style="edgeStyle=orthogonalEdgeStyle;rounded=0;orthogonalLoop=1;jettySize=auto;html=1;entryX=0;entryY=0.5;entryDx=0;entryDy=0;exitX=0.5;exitY=0;exitDx=0;exitDy=0;" parent="1" source="_6CS_IGcEAPFNUFGhsZa-94" target="_6CS_IGcEAPFNUFGhsZa-81" edge="1">
          <mxGeometry relative="1" as="geometry">
            <mxPoint x="405" y="59.99999999999977" as="targetPoint" />
          </mxGeometry>
        </mxCell>
        <mxCell id="_6CS_IGcEAPFNUFGhsZa-94" value="Aplicar descuentos disponibles" style="rounded=1;whiteSpace=wrap;html=1;" parent="1" vertex="1">
          <mxGeometry x="340" y="120" width="130" height="50" as="geometry" />
        </mxCell>
        <mxCell id="_6CS_IGcEAPFNUFGhsZa-98" value="" style="endArrow=none;dashed=1;html=1;rounded=0;" parent="1" edge="1">
          <mxGeometry width="50" height="50" relative="1" as="geometry">
            <mxPoint x="80" y="610" as="sourcePoint" />
            <mxPoint x="850" y="610" as="targetPoint" />
          </mxGeometry>
        </mxCell>
        <mxCell id="_6CS_IGcEAPFNUFGhsZa-99" value="" style="endArrow=none;dashed=1;html=1;rounded=0;" parent="1" edge="1">
          <mxGeometry width="50" height="50" relative="1" as="geometry">
            <mxPoint x="80" y="8" as="sourcePoint" />
            <mxPoint x="850" y="8" as="targetPoint" />
          </mxGeometry>
        </mxCell>
        <mxCell id="_6CS_IGcEAPFNUFGhsZa-100" value="" style="endArrow=none;html=1;rounded=0;" parent="1" edge="1">
          <mxGeometry width="50" height="50" relative="1" as="geometry">
            <mxPoint x="80" y="8" as="sourcePoint" />
            <mxPoint y="8" as="targetPoint" />
          </mxGeometry>
        </mxCell>
      </root>
    </mxGraphModel>
  </diagram>
</mxfile>
